<?xml version="1.0" standalone="no"?>
<!DOCTYPE svg PUBLIC "-//W3C//DTD SVG 20010904//EN"
 "http://www.w3.org/TR/2001/REC-SVG-20010904/DTD/svg10.dtd">
<svg version="1.0" xmlns="http://www.w3.org/2000/svg"
 width="900.000000pt" height="900.000000pt" viewBox="0 0 900.000000 900.000000"
 preserveAspectRatio="xMidYMid meet">

<g transform="translate(0.000000,900.000000) scale(0.100000,-0.100000)"
fill="#000000" stroke="none">
<path d="M1850 5323 c0 -1680 3 -2018 15 -2123 19 -169 29 -225 65 -362 104
-406 313 -782 605 -1087 590 -614 1425 -883 2255 -726 871 166 1601 806 1882
1650 34 102 53 174 79 300 47 231 49 296 49 1538 l0 1167 -310 0 -309 0 -4
-1222 c-3 -1091 -5 -1232 -20 -1308 -56 -286 -134 -484 -282 -710 -72 -110
-172 -235 -189 -235 -8 0 -13 257 -17 1000 -4 658 -10 1019 -17 1055 -41 207
-44 219 -76 315 -85 253 -224 483 -418 692 -35 37 -47 57 -41 67 9 16 79 80
313 286 47 41 110 97 140 125 30 27 107 95 169 150 63 55 186 164 274 243 88
78 164 139 168 135 5 -5 10 -71 11 -148 l3 -140 303 -3 302 -2 0 655 0 655
-645 0 -645 0 0 -300 0 -300 84 0 c56 0 87 -4 92 -12 9 -15 -26 -48 -636 -588
-359 -318 -469 -410 -485 -407 -11 3 -58 19 -105 35 -106 38 -218 68 -335 89
-77 14 -204 17 -870 22 l-780 6 0 435 0 435 1370 5 1370 5 3 303 2 302 -1685
0 -1685 0 0 -1997z m2265 -71 c126 -35 174 -52 260 -93 269 -127 485 -342 615
-614 55 -115 71 -164 103 -315 8 -40 11 -382 12 -1255 l0 -1199 -40 -23 c-59
-33 -241 -91 -379 -121 -111 -24 -140 -26 -361 -26 -221 0 -250 2 -361 26
-206 45 -369 106 -547 205 -340 189 -636 515 -791 870 -41 94 -93 245 -108
318 -5 28 -17 79 -25 115 -14 56 -17 207 -20 1089 -2 563 -2 1030 1 1038 5 12
124 13 783 10 765 -3 779 -4 858 -25z"/>
</g>
</svg>
